<mxfile host="app.diagrams.net" agent="Mozilla/5.0 (Windows NT 10.0; Win64; x64) AppleWebKit/537.36 (KHTML, like Gecko) Chrome/129.0.0.0 Safari/537.36 Edg/129.0.0.0" version="24.7.17">
  <diagram name="Page-1" id="MKKZoVw5_tgV43V-pC1_">
    <mxGraphModel dx="1226" dy="665" grid="1" gridSize="10" guides="1" tooltips="1" connect="1" arrows="1" fold="1" page="1" pageScale="1" pageWidth="850" pageHeight="1100" math="0" shadow="0">
      <root>
        <mxCell id="0" />
        <mxCell id="1" parent="0" />
        <mxCell id="JaNcC258ODd9KeHe6qxv-10" value="" style="edgeStyle=orthogonalEdgeStyle;rounded=0;orthogonalLoop=1;jettySize=auto;html=1;" edge="1" parent="1" source="JaNcC258ODd9KeHe6qxv-3" target="JaNcC258ODd9KeHe6qxv-4">
          <mxGeometry relative="1" as="geometry" />
        </mxCell>
        <mxCell id="JaNcC258ODd9KeHe6qxv-3" value="Start" style="ellipse;whiteSpace=wrap;html=1;" vertex="1" parent="1">
          <mxGeometry x="280" y="80" width="120" height="50" as="geometry" />
        </mxCell>
        <mxCell id="JaNcC258ODd9KeHe6qxv-9" value="" style="edgeStyle=orthogonalEdgeStyle;rounded=0;orthogonalLoop=1;jettySize=auto;html=1;" edge="1" parent="1" source="JaNcC258ODd9KeHe6qxv-4" target="JaNcC258ODd9KeHe6qxv-5">
          <mxGeometry relative="1" as="geometry" />
        </mxCell>
        <mxCell id="JaNcC258ODd9KeHe6qxv-4" value="Nhap n" style="shape=parallelogram;perimeter=parallelogramPerimeter;whiteSpace=wrap;html=1;fixedSize=1;" vertex="1" parent="1">
          <mxGeometry x="280" y="170" width="120" height="60" as="geometry" />
        </mxCell>
        <mxCell id="JaNcC258ODd9KeHe6qxv-8" style="edgeStyle=orthogonalEdgeStyle;rounded=0;orthogonalLoop=1;jettySize=auto;html=1;entryX=0;entryY=0.5;entryDx=0;entryDy=0;" edge="1" parent="1" source="JaNcC258ODd9KeHe6qxv-5" target="JaNcC258ODd9KeHe6qxv-7">
          <mxGeometry relative="1" as="geometry" />
        </mxCell>
        <mxCell id="JaNcC258ODd9KeHe6qxv-11" value="" style="edgeStyle=orthogonalEdgeStyle;rounded=0;orthogonalLoop=1;jettySize=auto;html=1;" edge="1" parent="1" source="JaNcC258ODd9KeHe6qxv-5" target="JaNcC258ODd9KeHe6qxv-6">
          <mxGeometry relative="1" as="geometry" />
        </mxCell>
        <mxCell id="JaNcC258ODd9KeHe6qxv-5" value="n &amp;gt; 0" style="html=1;whiteSpace=wrap;aspect=fixed;shape=isoRectangle;" vertex="1" parent="1">
          <mxGeometry x="265" y="275" width="150" height="90" as="geometry" />
        </mxCell>
        <mxCell id="JaNcC258ODd9KeHe6qxv-15" value="" style="edgeStyle=orthogonalEdgeStyle;rounded=0;orthogonalLoop=1;jettySize=auto;html=1;" edge="1" parent="1" source="JaNcC258ODd9KeHe6qxv-6" target="JaNcC258ODd9KeHe6qxv-14">
          <mxGeometry relative="1" as="geometry" />
        </mxCell>
        <mxCell id="JaNcC258ODd9KeHe6qxv-6" value="Chuso = n/10" style="rounded=0;whiteSpace=wrap;html=1;" vertex="1" parent="1">
          <mxGeometry x="280" y="420" width="120" height="60" as="geometry" />
        </mxCell>
        <mxCell id="JaNcC258ODd9KeHe6qxv-20" value="" style="edgeStyle=orthogonalEdgeStyle;rounded=0;orthogonalLoop=1;jettySize=auto;html=1;" edge="1" parent="1" source="JaNcC258ODd9KeHe6qxv-7" target="JaNcC258ODd9KeHe6qxv-19">
          <mxGeometry relative="1" as="geometry" />
        </mxCell>
        <mxCell id="JaNcC258ODd9KeHe6qxv-7" value="In ra Tong" style="shape=parallelogram;perimeter=parallelogramPerimeter;whiteSpace=wrap;html=1;fixedSize=1;" vertex="1" parent="1">
          <mxGeometry x="475" y="290" width="120" height="60" as="geometry" />
        </mxCell>
        <mxCell id="JaNcC258ODd9KeHe6qxv-12" value="Sai" style="text;html=1;align=center;verticalAlign=middle;whiteSpace=wrap;rounded=0;" vertex="1" parent="1">
          <mxGeometry x="415" y="290" width="60" height="30" as="geometry" />
        </mxCell>
        <mxCell id="JaNcC258ODd9KeHe6qxv-13" value="Dung" style="text;html=1;align=center;verticalAlign=middle;whiteSpace=wrap;rounded=0;" vertex="1" parent="1">
          <mxGeometry x="330" y="370" width="60" height="30" as="geometry" />
        </mxCell>
        <mxCell id="JaNcC258ODd9KeHe6qxv-18" value="" style="edgeStyle=orthogonalEdgeStyle;rounded=0;orthogonalLoop=1;jettySize=auto;html=1;" edge="1" parent="1" source="JaNcC258ODd9KeHe6qxv-14" target="JaNcC258ODd9KeHe6qxv-16">
          <mxGeometry relative="1" as="geometry" />
        </mxCell>
        <mxCell id="JaNcC258ODd9KeHe6qxv-14" value="Tong = Tong + Chuso" style="rounded=0;whiteSpace=wrap;html=1;" vertex="1" parent="1">
          <mxGeometry x="280" y="530" width="120" height="60" as="geometry" />
        </mxCell>
        <mxCell id="JaNcC258ODd9KeHe6qxv-16" value="n = n//10" style="rounded=0;whiteSpace=wrap;html=1;" vertex="1" parent="1">
          <mxGeometry x="280" y="640" width="120" height="60" as="geometry" />
        </mxCell>
        <mxCell id="JaNcC258ODd9KeHe6qxv-17" value="" style="endArrow=classic;html=1;rounded=0;exitX=0;exitY=0.5;exitDx=0;exitDy=0;entryX=0.012;entryY=0.487;entryDx=0;entryDy=0;entryPerimeter=0;" edge="1" parent="1" source="JaNcC258ODd9KeHe6qxv-16" target="JaNcC258ODd9KeHe6qxv-5">
          <mxGeometry width="50" height="50" relative="1" as="geometry">
            <mxPoint x="180" y="640" as="sourcePoint" />
            <mxPoint x="260" y="310" as="targetPoint" />
            <Array as="points">
              <mxPoint x="220" y="670" />
              <mxPoint x="220" y="320" />
            </Array>
          </mxGeometry>
        </mxCell>
        <mxCell id="JaNcC258ODd9KeHe6qxv-19" value="End" style="ellipse;whiteSpace=wrap;html=1;" vertex="1" parent="1">
          <mxGeometry x="475" y="400" width="120" height="60" as="geometry" />
        </mxCell>
      </root>
    </mxGraphModel>
  </diagram>
</mxfile>
